<svg xmlns="http://www.w3.org/2000/svg" version="1.1" xmlns:xlink="http://www.w3.org/1999/xlink" xmlns:svgjs="http://svgjs.dev/svgjs" width="1000" height="623" viewBox="0 0 1000 623"><g transform="matrix(1,0,0,1,-0.6060606060605664,0.2522421153449841)"><svg viewBox="0 0 396 247" data-background-color="#000000" preserveAspectRatio="xMidYMid meet" height="623" width="1000" xmlns="http://www.w3.org/2000/svg" xmlns:xlink="http://www.w3.org/1999/xlink"><g id="tight-bounds" transform="matrix(1,0,0,1,0.2400000000000091,-0.10000610351559658)"><svg viewBox="0 0 395.52 247.2" height="247.2" width="395.52"><rect width="395.5199890136719" height="247.20001220703125" fill="url(#354eecb9-7226-4674-89d4-252983f743ad)" mask="url(&quot;#cb4cde5c-db65-46de-9b09-106edc9d697a&quot;)" data-fill-palette-color="tertiary"></rect><rect width="395.5199890136719" height="247.20001220703125" fill="url(#6c3e3bc7-04f2-4752-b818-0766bb6091d5)" mask="url(&quot;#c85f3332-fa0d-4f4a-9951-2bbce409d511&quot;)" data-fill-palette-color="accent"></rect><rect width="395.5199890136719" height="247.20001220703125" fill="url(#2e759c95-39ea-45b3-9353-0da0d62403d8)" mask="url(&quot;#eda33715-c904-4bd5-a16e-04f7ba409676&quot;)" data-fill-palette-color="primary"></rect><g><svg></svg></g><g><svg viewBox="0 0 395.52 247.2" height="247.2" width="395.52"><g transform="matrix(1,0,0,1,75.54432,102.31056354553742)"><svg viewBox="0 0 244.43135999999998 42.57887290892514" height="42.57887290892514" width="244.43135999999998"><g><svg viewBox="0 0 244.43135999999998 42.57887290892514" height="42.57887290892514" width="244.43135999999998"><g><svg viewBox="0 0 305.7237760489158 53.25574347589228" height="42.57887290892514" width="244.43135999999998"><g transform="matrix(1,0,0,1,61.29241604891581,7.3602366164221635)"><svg viewBox="0 0 244.43135999999998 38.535270243047954" height="38.535270243047954" width="244.43135999999998"><g id="textblocktransform"><svg viewBox="0 0 244.43135999999998 38.535270243047954" height="38.535270243047954" width="244.43135999999998" id="textblock"><g><svg viewBox="0 0 244.43135999999998 38.535270243047954" height="38.535270243047954" width="244.43135999999998"><g transform="matrix(1,0,0,1,0,0)"><svg width="244.43135999999998" viewBox="3.25 -35.5 228.3300018310547 36" height="38.535270243047954" data-palette-color="url(#2e759c95-39ea-45b3-9353-0da0d62403d8)"></svg></g></svg></g></svg></g></svg></g><g><svg viewBox="0 0 52.19516359101802 53.25574347589228" height="53.25574347589228" width="52.19516359101802"><g><svg xmlns="http://www.w3.org/2000/svg" xmlns:xlink="http://www.w3.org/1999/xlink" version="1.1" x="0" y="0" viewBox="0.6790683269500732 0.15904521942138672 46.60258102416992 47.549522399902344" enable-background="new 0 0 48 48" xml:space="preserve" height="53.25574347589228" width="52.19516359101802" class="icon-icon-0" data-fill-palette-color="accent" id="icon-0"></svg></g></svg></g></svg></g></svg></g></svg></g><g><path d="M0 123.6c0-68.262 55.338-123.6 123.6-123.6 59.724 0 109.554 42.36 121.086 98.674h-1.419c-11.51-55.542-60.713-97.285-119.667-97.285-67.495 0-122.211 54.716-122.211 122.211 0 67.495 54.716 122.211 122.211 122.211 58.953 0 108.157-41.743 119.667-97.285l1.419 0c-11.532 56.314-61.362 98.674-121.086 98.674-68.262 0-123.6-55.338-123.6-123.6z" fill="url(#354eecb9-7226-4674-89d4-252983f743ad)" stroke="transparent" data-fill-palette-color="tertiary"></path></g></svg></g><defs></defs><mask id="eda33715-c904-4bd5-a16e-04f7ba409676"><g id="SvgjsG1178"><svg viewBox="0 0 395.52 247.2" height="247.2" width="395.52"><g><svg></svg></g><g><svg viewBox="0 0 395.52 247.2" height="247.2" width="395.52"><g transform="matrix(1,0,0,1,75.54432,102.31056354553742)"><svg viewBox="0 0 244.43135999999998 42.57887290892514" height="42.57887290892514" width="244.43135999999998"><g><svg viewBox="0 0 244.43135999999998 42.57887290892514" height="42.57887290892514" width="244.43135999999998"><g><svg viewBox="0 0 305.7237760489158 53.25574347589228" height="42.57887290892514" width="244.43135999999998"><g transform="matrix(1,0,0,1,61.29241604891581,7.3602366164221635)"><svg viewBox="0 0 244.43135999999998 38.535270243047954" height="38.535270243047954" width="244.43135999999998"><g id="SvgjsG1177"><svg viewBox="0 0 244.43135999999998 38.535270243047954" height="38.535270243047954" width="244.43135999999998" id="SvgjsSvg1176"><g><svg viewBox="0 0 244.43135999999998 38.535270243047954" height="38.535270243047954" width="244.43135999999998"><g transform="matrix(1,0,0,1,0,0)"><svg width="244.43135999999998" viewBox="3.25 -35.5 228.3300018310547 36" height="38.535270243047954" data-palette-color="url(#2e759c95-39ea-45b3-9353-0da0d62403d8)"><path d="M23.15-4.4L23.15 0 3.25 0 3.25-26.65Q3.25-30.35 5.6-32.6L5.6-32.6Q7.2-34.1 9.2-34.55 11.2-35 14.1-35L14.1-35 23.15-35 23.15-30.6 13.45-30.6Q7.95-30.6 7.95-26L7.95-26 7.95-20.3 19.5-20.3 19.5-15.9 7.95-15.9 7.95-4.4 23.15-4.4ZM32.85-12.8L32.85 0 28.4 0 28.4-22Q28.4-27.4 31.87-31.2 35.35-35 40.85-35L40.85-35 52.3-35 52.3 0 47.6 0 47.6-30.6 40.85-30.6Q37.2-30.6 35.02-28.45 32.85-26.3 32.85-21.6L32.85-21.6 32.85-17.35Q35.65-20.3 40.85-20.3L40.85-20.3 45.4-20.3 45.4-15.9 40.85-15.9Q37.95-15.9 36.12-15.2 34.3-14.5 32.85-12.8L32.85-12.8ZM65.7-30.6L57.05-30.6 57.05-35 79.05-35 79.05-30.6 70.4-30.6 70.4 0 65.7 0 65.7-30.6ZM99.89-26L99.89-26 99.89-19.3 109.19-19.3 109.19-14.9 99.89-14.9 99.89 0 95.19 0 95.19-26.65Q95.19-30.35 97.54-32.6L97.54-32.6Q99.14-34.1 101.14-34.55 103.14-35 106.04-35L106.04-35 111.34-35 111.34-30.6 105.39-30.6Q99.89-30.6 99.89-26ZM120.29 0L115.59 0 115.59-22.75Q115.59-28.8 118.56-32.15 121.54-35.5 127.04-35.5L127.04-35.5Q132.59-35.5 135.56-32.8 138.54-30.1 138.54-25.2L138.54-25.2Q138.54-22.05 137.04-20.05 135.54-18.05 131.94-16.9L131.94-16.9 131.94-16.7Q135.69-15.25 136.96-12.58 138.24-9.9 138.24-3.75L138.24-3.75 138.24 0 133.54 0 133.54-6.4Q133.54-10.2 131.39-12.33 129.24-14.45 125.19-14.45L125.19-14.45 122.49-14.45 122.49-18.85 125.34-18.85Q130.14-18.85 131.99-20.8 133.84-22.75 133.84-25.45L133.84-25.45Q133.84-28 132.01-29.55 130.19-31.1 127.19-31.1L127.19-31.1Q123.74-31.1 122.01-29.15 120.29-27.2 120.29-22.75L120.29-22.75 120.29 0ZM164.24-10.35L164.24-35 168.94-35 168.94-11Q168.94-5.05 165.86-2.27 162.79 0.5 156.59 0.5 150.39 0.5 147.34-2.27 144.29-5.05 144.29-11L144.29-11 144.29-35 148.99-35 148.99-10.35Q148.99-6.95 151.06-5.43 153.14-3.9 156.54-3.9L156.54-3.9Q160.04-3.9 162.14-5.43 164.24-6.95 164.24-10.35L164.24-10.35ZM180.38-35L180.38 0 175.68 0 175.68-35 180.38-35ZM193.78-30.6L185.13-30.6 185.13-35 207.13-35 207.13-30.6 198.48-30.6 198.48 0 193.78 0 193.78-30.6ZM220.38-35L229.53-35 229.53-30.6 220.68-30.6Q215.63-30.6 215.63-26.5L215.63-26.5Q215.63-24.3 217.85-22.78 220.08-21.25 223.88-19.85L223.88-19.85Q225.58-19.2 226.78-18.53 227.98-17.85 229.18-16.75 230.38-15.65 230.98-13.93 231.58-12.2 231.58-9.95L231.58-9.95Q231.58-7.45 230.53-5.48 229.48-3.5 227.83-2.38 226.18-1.25 224.45-0.68 222.73-0.1 221.08-0.05L221.08-0.05Q220.38 0 219.08 0L219.08 0 211.28 0 211.28-4.4 218.93-4.4Q222.33-4.4 224.48-5.83 226.63-7.25 226.63-10L226.63-10Q226.63-11.35 226.03-12.38 225.43-13.4 224.3-14.15 223.18-14.9 222-15.45 220.83-16 219.18-16.6L219.18-16.6Q218.73-16.75 218.48-16.85L218.48-16.85Q210.63-19.85 210.63-26.65L210.63-26.65Q210.63-30.85 213.33-32.93 216.03-35 220.38-35L220.38-35Z" opacity="1" transform="matrix(1,0,0,1,0,0)" fill="white" class="undefined-text-0" id="SvgjsPath1175"></path></svg></g></svg></g></svg></g></svg></g><g><svg viewBox="0 0 52.19516359101802 53.25574347589228" height="53.25574347589228" width="52.19516359101802"><g><svg xmlns="http://www.w3.org/2000/svg" xmlns:xlink="http://www.w3.org/1999/xlink" version="1.1" x="0" y="0" viewBox="0.6790683269500732 0.15904521942138672 46.60258102416992 47.549522399902344" enable-background="new 0 0 48 48" xml:space="preserve" height="53.25574347589228" width="52.19516359101802" class="icon-icon-0" data-fill-palette-color="accent" id="SvgjsSvg1174"></svg></g></svg></g></svg></g></svg></g></svg></g><g></g></svg></g><defs><mask></mask></defs></svg></g></mask><linearGradient x1="0.054" x2="0.941" y1="0.5" y2="0.5" id="2e759c95-39ea-45b3-9353-0da0d62403d8"><stop stop-color="#9c7945" offset="0"></stop><stop stop-color="#faf3aa" offset="0.498"></stop><stop stop-color="#9c7945" offset="1"></stop></linearGradient><mask id="c85f3332-fa0d-4f4a-9951-2bbce409d511"><g id="SvgjsG1187"><svg viewBox="0 0 395.52 247.2" height="247.2" width="395.52"><g><svg></svg></g><g><svg viewBox="0 0 395.52 247.2" height="247.2" width="395.52"><g transform="matrix(1,0,0,1,75.54432,102.31056354553742)"><svg viewBox="0 0 244.43135999999998 42.57887290892514" height="42.57887290892514" width="244.43135999999998"><g><svg viewBox="0 0 244.43135999999998 42.57887290892514" height="42.57887290892514" width="244.43135999999998"><g><svg viewBox="0 0 305.7237760489158 53.25574347589228" height="42.57887290892514" width="244.43135999999998"><g transform="matrix(1,0,0,1,61.29241604891581,7.3602366164221635)"><svg viewBox="0 0 244.43135999999998 38.535270243047954" height="38.535270243047954" width="244.43135999999998"><g id="SvgjsG1186"><svg viewBox="0 0 244.43135999999998 38.535270243047954" height="38.535270243047954" width="244.43135999999998" id="SvgjsSvg1185"><g><svg viewBox="0 0 244.43135999999998 38.535270243047954" height="38.535270243047954" width="244.43135999999998"><g transform="matrix(1,0,0,1,0,0)"><svg width="244.43135999999998" viewBox="3.25 -35.5 228.3300018310547 36" height="38.535270243047954" data-palette-color="url(#2e759c95-39ea-45b3-9353-0da0d62403d8)"></svg></g></svg></g></svg></g></svg></g><g><svg viewBox="0 0 52.19516359101802 53.25574347589228" height="53.25574347589228" width="52.19516359101802"><g><svg xmlns="http://www.w3.org/2000/svg" xmlns:xlink="http://www.w3.org/1999/xlink" version="1.1" x="0" y="0" viewBox="0.6790683269500732 0.15904521942138672 46.60258102416992 47.549522399902344" enable-background="new 0 0 48 48" xml:space="preserve" height="53.25574347589228" width="52.19516359101802" class="icon-icon-0" data-fill-palette-color="accent" id="SvgjsSvg1184"><g fill="white"><g fill="white"><path fill="white" d="M27.2 42.5c-10.8 9.2-21.7 3.9-25.7 1.5-0.9-0.6-1.1-1.8-0.4-2.6C8.2 33.8 2 25.2 7.1 16.2c7.2-12.7 20.5-6.7 20.5-6.7 0 0 0 0 0.1 0 3.4 1.3 6 4.1 7.2 7.6C36.8 22.8 38.1 33.2 27.2 42.5z"></path></g><g fill="white"><path fill="white" d="M26.6 12.7c-0.1 0-0.2 0-0.3-0.1-0.5-0.2-0.8-0.8-0.6-1.3 0.1-0.3 2.5-7 10-11 0.5-0.3 1.1-0.1 1.4 0.4 0.3 0.5 0.1 1.1-0.4 1.4-6.8 3.6-9 9.8-9 9.9C27.4 12.5 27 12.7 26.6 12.7z"></path></g><g fill="white"><path fill="white" d="M47.2 28.9c-0.2 2.9-0.5 5.9-2 8.4-0.4 0.7-0.9 1.4-1.4 2-0.8 1.1-1.6 2.1-2.5 3.2 2.5-6.4 1.8-13.6-0.2-20.1-1.7-5.8-4.5-11.6-9.1-15.6-0.3-0.3-0.7-0.6-0.9-1-0.2-0.4-0.2-1 0.2-1.2 0.1-0.1 0.3-0.1 0.4-0.2C33.2 4 34.8 4.3 36.2 5c1.4 0.7 2.6 1.7 3.8 2.8 1.3 1.1 2.6 2.3 3.5 3.7 1 1.5 1.6 3.3 2.1 5 0.5 1.6 1 3.1 1.3 4.7C47.4 23.7 47.3 26.3 47.2 28.9z"></path></g></g></svg></g></svg></g></svg></g></svg></g></svg></g><g></g></svg></g><defs><mask></mask></defs><mask><g id="SvgjsG1183"><svg viewBox="0 0 395.52 247.2" height="247.2" width="395.52"><g><svg></svg></g><g><svg viewBox="0 0 395.52 247.2" height="247.2" width="395.52"><g transform="matrix(1,0,0,1,75.54432,102.31056354553742)"><svg viewBox="0 0 244.43135999999998 42.57887290892514" height="42.57887290892514" width="244.43135999999998"><g><svg viewBox="0 0 244.43135999999998 42.57887290892514" height="42.57887290892514" width="244.43135999999998"><g><svg viewBox="0 0 305.7237760489158 53.25574347589228" height="42.57887290892514" width="244.43135999999998"><g transform="matrix(1,0,0,1,61.29241604891581,7.3602366164221635)"><svg viewBox="0 0 244.43135999999998 38.535270243047954" height="38.535270243047954" width="244.43135999999998"><g id="SvgjsG1182"><svg viewBox="0 0 244.43135999999998 38.535270243047954" height="38.535270243047954" width="244.43135999999998" id="SvgjsSvg1181"><g><svg viewBox="0 0 244.43135999999998 38.535270243047954" height="38.535270243047954" width="244.43135999999998"><g transform="matrix(1,0,0,1,0,0)"><svg width="244.43135999999998" viewBox="3.25 -35.5 228.3300018310547 36" height="38.535270243047954" data-palette-color="url(#2e759c95-39ea-45b3-9353-0da0d62403d8)"></svg></g></svg></g></svg></g></svg></g><g><svg viewBox="0 0 52.19516359101802 53.25574347589228" height="53.25574347589228" width="52.19516359101802"><g><svg xmlns="http://www.w3.org/2000/svg" xmlns:xlink="http://www.w3.org/1999/xlink" version="1.1" x="0" y="0" viewBox="0.6790683269500732 0.15904521942138672 46.60258102416992 47.549522399902344" enable-background="new 0 0 48 48" xml:space="preserve" height="53.25574347589228" width="52.19516359101802" class="icon-icon-0" data-fill-palette-color="accent" id="SvgjsSvg1179"></svg></g></svg></g></svg></g></svg></g></svg></g><g></g></svg></g><defs><mask></mask></defs></svg></g></mask></svg></g></mask><linearGradient x1="0.054" x2="0.941" y1="0.5" y2="0.5" id="6c3e3bc7-04f2-4752-b818-0766bb6091d5"><stop stop-color="#9c7945" offset="0"></stop><stop stop-color="#faf3aa" offset="0.498"></stop><stop stop-color="#9c7945" offset="1"></stop></linearGradient><mask id="cb4cde5c-db65-46de-9b09-106edc9d697a"><g id="SvgjsG1204"><svg viewBox="0 0 395.52 247.2" height="247.2" width="395.52"><g><svg></svg></g><g><svg viewBox="0 0 395.52 247.2" height="247.2" width="395.52"><g transform="matrix(1,0,0,1,75.54432,102.31056354553742)"><svg viewBox="0 0 244.43135999999998 42.57887290892514" height="42.57887290892514" width="244.43135999999998"><g><svg viewBox="0 0 244.43135999999998 42.57887290892514" height="42.57887290892514" width="244.43135999999998"><g><svg viewBox="0 0 305.7237760489158 53.25574347589228" height="42.57887290892514" width="244.43135999999998"><g transform="matrix(1,0,0,1,61.29241604891581,7.3602366164221635)"><svg viewBox="0 0 244.43135999999998 38.535270243047954" height="38.535270243047954" width="244.43135999999998"><g id="SvgjsG1203"><svg viewBox="0 0 244.43135999999998 38.535270243047954" height="38.535270243047954" width="244.43135999999998" id="SvgjsSvg1202"><g><svg viewBox="0 0 244.43135999999998 38.535270243047954" height="38.535270243047954" width="244.43135999999998"><g transform="matrix(1,0,0,1,0,0)"><svg width="244.43135999999998" viewBox="3.25 -35.5 228.3300018310547 36" height="38.535270243047954" data-palette-color="url(#2e759c95-39ea-45b3-9353-0da0d62403d8)"></svg></g></svg></g></svg></g></svg></g><g><svg viewBox="0 0 52.19516359101802 53.25574347589228" height="53.25574347589228" width="52.19516359101802"><g><svg xmlns="http://www.w3.org/2000/svg" xmlns:xlink="http://www.w3.org/1999/xlink" version="1.1" x="0" y="0" viewBox="0.6790683269500732 0.15904521942138672 46.60258102416992 47.549522399902344" enable-background="new 0 0 48 48" xml:space="preserve" height="53.25574347589228" width="52.19516359101802" class="icon-icon-0" data-fill-palette-color="accent" id="SvgjsSvg1201"></svg></g></svg></g></svg></g></svg></g></svg></g><g><path d="M0 123.6c0-68.262 55.338-123.6 123.6-123.6 59.724 0 109.554 42.36 121.086 98.674h-1.419c-11.51-55.542-60.713-97.285-119.667-97.285-67.495 0-122.211 54.716-122.211 122.211 0 67.495 54.716 122.211 122.211 122.211 58.953 0 108.157-41.743 119.667-97.285l1.419 0c-11.532 56.314-61.362 98.674-121.086 98.674-68.262 0-123.6-55.338-123.6-123.6z" fill="white" stroke="transparent"></path></g></svg></g><defs><mask></mask></defs><mask><g id="SvgjsG1200"><svg viewBox="0 0 395.52 247.2" height="247.2" width="395.52"><g><svg></svg></g><g><svg viewBox="0 0 395.52 247.2" height="247.2" width="395.52"><g transform="matrix(1,0,0,1,75.54432,102.31056354553742)"><svg viewBox="0 0 244.43135999999998 42.57887290892514" height="42.57887290892514" width="244.43135999999998"><g><svg viewBox="0 0 244.43135999999998 42.57887290892514" height="42.57887290892514" width="244.43135999999998"><g><svg viewBox="0 0 305.7237760489158 53.25574347589228" height="42.57887290892514" width="244.43135999999998"><g transform="matrix(1,0,0,1,61.29241604891581,7.3602366164221635)"><svg viewBox="0 0 244.43135999999998 38.535270243047954" height="38.535270243047954" width="244.43135999999998"><g id="SvgjsG1199"><svg viewBox="0 0 244.43135999999998 38.535270243047954" height="38.535270243047954" width="244.43135999999998" id="SvgjsSvg1198"><g><svg viewBox="0 0 244.43135999999998 38.535270243047954" height="38.535270243047954" width="244.43135999999998"><g transform="matrix(1,0,0,1,0,0)"><svg width="244.43135999999998" viewBox="3.25 -35.5 228.3300018310547 36" height="38.535270243047954" data-palette-color="url(#2e759c95-39ea-45b3-9353-0da0d62403d8)"></svg></g></svg></g></svg></g></svg></g><g><svg viewBox="0 0 52.19516359101802 53.25574347589228" height="53.25574347589228" width="52.19516359101802"><g><svg xmlns="http://www.w3.org/2000/svg" xmlns:xlink="http://www.w3.org/1999/xlink" version="1.1" x="0" y="0" viewBox="0.6790683269500732 0.15904521942138672 46.60258102416992 47.549522399902344" enable-background="new 0 0 48 48" xml:space="preserve" height="53.25574347589228" width="52.19516359101802" class="icon-icon-0" data-fill-palette-color="accent" id="SvgjsSvg1196"></svg></g></svg></g></svg></g></svg></g></svg></g><g></g></svg></g><defs><mask></mask></defs></svg></g></mask><mask><g id="SvgjsG1195"><svg viewBox="0 0 395.52 247.2" height="247.2" width="395.52"><g><svg></svg></g><g><svg viewBox="0 0 395.52 247.2" height="247.2" width="395.52"><g transform="matrix(1,0,0,1,75.54432,102.31056354553742)"><svg viewBox="0 0 244.43135999999998 42.57887290892514" height="42.57887290892514" width="244.43135999999998"><g><svg viewBox="0 0 244.43135999999998 42.57887290892514" height="42.57887290892514" width="244.43135999999998"><g><svg viewBox="0 0 305.7237760489158 53.25574347589228" height="42.57887290892514" width="244.43135999999998"><g transform="matrix(1,0,0,1,61.29241604891581,7.3602366164221635)"><svg viewBox="0 0 244.43135999999998 38.535270243047954" height="38.535270243047954" width="244.43135999999998"><g id="SvgjsG1194"><svg viewBox="0 0 244.43135999999998 38.535270243047954" height="38.535270243047954" width="244.43135999999998" id="SvgjsSvg1193"><g><svg viewBox="0 0 244.43135999999998 38.535270243047954" height="38.535270243047954" width="244.43135999999998"><g transform="matrix(1,0,0,1,0,0)"><svg width="244.43135999999998" viewBox="3.25 -35.5 228.3300018310547 36" height="38.535270243047954" data-palette-color="url(#2e759c95-39ea-45b3-9353-0da0d62403d8)"></svg></g></svg></g></svg></g></svg></g><g><svg viewBox="0 0 52.19516359101802 53.25574347589228" height="53.25574347589228" width="52.19516359101802"><g><svg xmlns="http://www.w3.org/2000/svg" xmlns:xlink="http://www.w3.org/1999/xlink" version="1.1" x="0" y="0" viewBox="0.6790683269500732 0.15904521942138672 46.60258102416992 47.549522399902344" enable-background="new 0 0 48 48" xml:space="preserve" height="53.25574347589228" width="52.19516359101802" class="icon-icon-0" data-fill-palette-color="accent" id="SvgjsSvg1192"></svg></g></svg></g></svg></g></svg></g></svg></g><g></g></svg></g><defs><mask></mask></defs><mask><g id="SvgjsG1191"><svg viewBox="0 0 395.52 247.2" height="247.2" width="395.52"><g><svg></svg></g><g><svg viewBox="0 0 395.52 247.2" height="247.2" width="395.52"><g transform="matrix(1,0,0,1,75.54432,102.31056354553742)"><svg viewBox="0 0 244.43135999999998 42.57887290892514" height="42.57887290892514" width="244.43135999999998"><g><svg viewBox="0 0 244.43135999999998 42.57887290892514" height="42.57887290892514" width="244.43135999999998"><g><svg viewBox="0 0 305.7237760489158 53.25574347589228" height="42.57887290892514" width="244.43135999999998"><g transform="matrix(1,0,0,1,61.29241604891581,7.3602366164221635)"><svg viewBox="0 0 244.43135999999998 38.535270243047954" height="38.535270243047954" width="244.43135999999998"><g id="SvgjsG1190"><svg viewBox="0 0 244.43135999999998 38.535270243047954" height="38.535270243047954" width="244.43135999999998" id="SvgjsSvg1189"><g><svg viewBox="0 0 244.43135999999998 38.535270243047954" height="38.535270243047954" width="244.43135999999998"><g transform="matrix(1,0,0,1,0,0)"><svg width="244.43135999999998" viewBox="3.25 -35.5 228.3300018310547 36" height="38.535270243047954" data-palette-color="url(#2e759c95-39ea-45b3-9353-0da0d62403d8)"></svg></g></svg></g></svg></g></svg></g><g><svg viewBox="0 0 52.19516359101802 53.25574347589228" height="53.25574347589228" width="52.19516359101802"><g><svg xmlns="http://www.w3.org/2000/svg" xmlns:xlink="http://www.w3.org/1999/xlink" version="1.1" x="0" y="0" viewBox="0.6790683269500732 0.15904521942138672 46.60258102416992 47.549522399902344" enable-background="new 0 0 48 48" xml:space="preserve" height="53.25574347589228" width="52.19516359101802" class="icon-icon-0" data-fill-palette-color="accent" id="SvgjsSvg1188"></svg></g></svg></g></svg></g></svg></g></svg></g><g></g></svg></g><defs><mask></mask></defs></svg></g></mask></svg></g></mask></svg></g></mask><linearGradient x1="0.054" x2="0.941" y1="0.5" y2="0.5" id="354eecb9-7226-4674-89d4-252983f743ad"><stop stop-color="#9c7945" offset="0"></stop><stop stop-color="#faf3aa" offset="0.498"></stop><stop stop-color="#9c7945" offset="1"></stop></linearGradient></svg><rect width="395.52" height="247.2" fill="none" stroke="none" visibility="hidden"></rect></g></svg></g></svg>